<svg width="38" height="38" viewBox="0 0 38 38" fill="none" xmlns="http://www.w3.org/2000/svg">
<path d="M4.07141 9.50003C4.07141 8.75049 4.67903 8.14288 5.42855 8.14288H32.5714C33.321 8.14288 33.9286 8.75049 33.9286 9.50003C33.9286 10.2496 33.321 10.8572 32.5714 10.8572H5.42855C4.67903 10.8572 4.07141 10.2496 4.07141 9.50003Z" fill="#7A8697"/>
<path d="M4.07141 19C4.07141 18.2505 4.67903 17.6429 5.42855 17.6429H32.5714C33.321 17.6429 33.9286 18.2505 33.9286 19C33.9286 19.7496 33.321 20.3572 32.5714 20.3572H5.42855C4.67903 20.3572 4.07141 19.7496 4.07141 19Z" fill="#7A8697"/>
<path d="M5.42855 27.1429C4.67903 27.1429 4.07141 27.7504 4.07141 28.5C4.07141 29.2495 4.67903 29.8571 5.42855 29.8571H32.5714C33.321 29.8571 33.9286 29.2495 33.9286 28.5C33.9286 27.7504 33.321 27.1429 32.5714 27.1429H5.42855Z" fill="#7A8697"/>
</svg>
