<svg width="27" height="26" viewBox="0 0 27 26" fill="none" xmlns="http://www.w3.org/2000/svg">
<path fill-rule="evenodd" clip-rule="evenodd" d="M12.25 18.7807H14V20.3457H12.25V18.7807ZM12.25 21.9108H14C14.966 21.9108 15.75 21.2097 15.75 20.3457V18.7807C15.75 17.9168 14.966 17.2156 14 17.2156H12.25C11.284 17.2156 10.5 17.9168 10.5 18.7807V20.3457C10.5 21.2097 11.284 21.9108 12.25 21.9108ZM5.25 18.7807H7V20.3457H5.25V18.7807ZM5.25 21.9108H7C7.966 21.9108 8.75 21.2097 8.75 20.3457V18.7807C8.75 17.9168 7.966 17.2156 7 17.2156H5.25C4.284 17.2156 3.5 17.9168 3.5 18.7807V20.3457C3.5 21.2097 4.284 21.9108 5.25 21.9108ZM12.25 12.5205H14V14.0855H12.25V12.5205ZM12.25 15.6506H14C14.966 15.6506 15.75 14.9494 15.75 14.0855V12.5205C15.75 11.6565 14.966 10.9554 14 10.9554H12.25C11.284 10.9554 10.5 11.6565 10.5 12.5205V14.0855C10.5 14.9494 11.284 15.6506 12.25 15.6506ZM5.25 12.5205H7V14.0855H5.25V12.5205ZM5.25 15.6506H7C7.966 15.6506 8.75 14.9494 8.75 14.0855V12.5205C8.75 11.6565 7.966 10.9554 7 10.9554H5.25C4.284 10.9554 3.5 11.6565 3.5 12.5205V14.0855C3.5 14.9494 4.284 15.6506 5.25 15.6506ZM24.5 6.26023H1.75V4.69517C1.75 3.83126 2.534 3.13011 3.5 3.13011H7V3.91264C7 4.34538 7.39113 4.69517 7.875 4.69517C8.35888 4.69517 8.75 4.34538 8.75 3.91264V3.13011H17.5V3.91264C17.5 4.34538 17.8911 4.69517 18.375 4.69517C18.8589 4.69517 19.25 4.34538 19.25 3.91264V3.13011H22.75C23.716 3.13011 24.5 3.83126 24.5 4.69517V6.26023ZM24.5 21.9108C24.5 22.7747 23.716 23.4759 22.75 23.4759H3.5C2.534 23.4759 1.75 22.7747 1.75 21.9108V7.82528H24.5V21.9108ZM22.75 1.56506H19.25V0.782528C19.25 0.350573 18.8589 0 18.375 0C17.8911 0 17.5 0.350573 17.5 0.782528V1.56506H8.75V0.782528C8.75 0.350573 8.35888 0 7.875 0C7.39113 0 7 0.350573 7 0.782528V1.56506H3.5C1.56712 1.56506 0 2.96657 0 4.69517V21.9108C0 23.6394 1.56712 25.0409 3.5 25.0409H22.75C24.6829 25.0409 26.25 23.6394 26.25 21.9108V4.69517C26.25 2.96657 24.6829 1.56506 22.75 1.56506ZM19.25 12.5205H21V14.0855H19.25V12.5205ZM19.25 15.6506H21C21.966 15.6506 22.75 14.9494 22.75 14.0855V12.5205C22.75 11.6565 21.966 10.9554 21 10.9554H19.25C18.284 10.9554 17.5 11.6565 17.5 12.5205V14.0855C17.5 14.9494 18.284 15.6506 19.25 15.6506ZM19.25 18.7807H21V20.3457H19.25V18.7807ZM19.25 21.9108H21C21.966 21.9108 22.75 21.2097 22.75 20.3457V18.7807C22.75 17.9168 21.966 17.2156 21 17.2156H19.25C18.284 17.2156 17.5 17.9168 17.5 18.7807V20.3457C17.5 21.2097 18.284 21.9108 19.25 21.9108Z" fill="#7A8697"/>
</svg>
