<svg width="157" height="20" viewBox="0 0 157 20" fill="none" xmlns="http://www.w3.org/2000/svg">
<path d="M7.37109 1.77344C8.77734 1.76562 10.3594 2.07422 12.1172 2.69922L11.3789 5.51172C9.74609 4.93359 8.41797 4.64453 7.39453 4.64453C6.56641 4.64453 5.91406 4.80859 5.4375 5.13672C4.96094 5.46484 4.72266 5.91016 4.72266 6.47266C4.72266 7.08203 4.94141 7.56641 5.37891 7.92578C5.82422 8.28516 6.63281 8.61719 7.80469 8.92188C9.53125 9.36719 10.7578 9.98438 11.4844 10.7734C12.2109 11.5547 12.5742 12.6328 12.5742 14.0078C12.5742 15.6719 12.0117 16.9492 10.8867 17.8398C9.76953 18.7227 8.17188 19.1641 6.09375 19.1641C4.39844 19.1641 2.58203 18.7812 0.644531 18.0156L1.51172 15.2852C2.58203 15.668 3.45703 15.9375 4.13672 16.0938C4.81641 16.2422 5.46094 16.3164 6.07031 16.3164C6.95312 16.3164 7.63281 16.1289 8.10938 15.7539C8.59375 15.3711 8.83594 14.8438 8.83594 14.1719C8.83594 13.7422 8.73438 13.3828 8.53125 13.0938C8.32812 12.8047 7.98438 12.5469 7.5 12.3203C7.01562 12.0859 6.31641 11.8555 5.40234 11.6289C3.87891 11.2617 2.76562 10.6914 2.0625 9.91797C1.35938 9.14453 1.00781 8.125 1.00781 6.85938C1.00781 5.24219 1.5625 3.99219 2.67188 3.10938C3.78906 2.21875 5.35547 1.77344 7.37109 1.77344ZM20.5898 6.22656C21.8711 6.22656 23.0859 6.52344 24.2344 7.11719L23.4375 9.49609C22.5859 9.05078 21.7617 8.82812 20.9648 8.82812C19.9258 8.82812 19.1211 9.16406 18.5508 9.83594C17.9883 10.5078 17.707 11.457 17.707 12.6836C17.707 13.9023 17.9961 14.8438 18.5742 15.5078C19.1602 16.1719 20 16.5039 21.0938 16.5039C21.9922 16.5039 22.8711 16.3125 23.7305 15.9297L24.3047 18.3789C23.7266 18.6367 23.1016 18.8359 22.4297 18.9766C21.7578 19.1172 21.1172 19.1875 20.5078 19.1875C18.4297 19.1875 16.8398 18.6289 15.7383 17.5117C14.6367 16.3945 14.0859 14.7852 14.0859 12.6836C14.0859 10.6367 14.6523 9.05078 15.7852 7.92578C16.918 6.79297 18.5195 6.22656 20.5898 6.22656ZM29.7422 8.17188C30.5312 6.875 31.6367 6.22656 33.0586 6.22656C33.3633 6.22656 33.6211 6.24609 33.832 6.28516C34.0508 6.31641 34.3281 6.37891 34.6641 6.47266L34.2539 9.61328C33.582 9.37109 32.9883 9.25391 32.4727 9.26172C31.9102 9.26172 31.4336 9.36328 31.043 9.56641C30.6523 9.76172 30.3242 10.0742 30.0586 10.5039V19H26.4492V6.42578H29.3086L29.7422 8.17188ZM36.4688 1.36328H40.0664V4.64453H36.4688V1.36328ZM36.4688 6.56641H40.0664V19H36.4688V6.56641ZM47.1914 7.62109C48.1211 6.69141 49.25 6.22656 50.5781 6.22656C52.3203 6.22656 53.6758 6.77344 54.6445 7.86719C55.6133 8.95312 56.0977 10.4805 56.0977 12.4492C56.0977 14.5273 55.4883 16.168 54.2695 17.3711C53.0508 18.5664 51.3789 19.1641 49.2539 19.1641C48.168 19.1641 47.1094 19.0938 46.0781 18.9531C45.0547 18.8047 44.2266 18.6133 43.5938 18.3789V0.953125H47.1914V7.62109ZM49.8281 8.78125C49.1719 8.78125 48.6055 8.96484 48.1289 9.33203C47.6602 9.69922 47.3477 10.1875 47.1914 10.7969V16.4102C47.7227 16.6211 48.3555 16.7227 49.0898 16.7148C50.1758 16.7148 51.0039 16.3633 51.5742 15.6602C52.1523 14.957 52.4414 13.9258 52.4414 12.5664C52.4414 11.3164 52.2188 10.375 51.7734 9.74219C51.3281 9.10156 50.6797 8.78125 49.8281 8.78125ZM62.2148 7.62109C63.1445 6.69141 64.2734 6.22656 65.6016 6.22656C67.3438 6.22656 68.6992 6.77344 69.668 7.86719C70.6367 8.95312 71.1211 10.4805 71.1211 12.4492C71.1211 14.5273 70.5117 16.168 69.293 17.3711C68.0742 18.5664 66.4023 19.1641 64.2773 19.1641C63.1914 19.1641 62.1328 19.0938 61.1016 18.9531C60.0781 18.8047 59.25 18.6133 58.6172 18.3789V0.953125H62.2148V7.62109ZM64.8516 8.78125C64.1953 8.78125 63.6289 8.96484 63.1523 9.33203C62.6836 9.69922 62.3711 10.1875 62.2148 10.7969V16.4102C62.7461 16.6211 63.3789 16.7227 64.1133 16.7148C65.1992 16.7148 66.0273 16.3633 66.5977 15.6602C67.1758 14.957 67.4648 13.9258 67.4648 12.5664C67.4648 11.3164 67.2422 10.375 66.7969 9.74219C66.3516 9.10156 65.7031 8.78125 64.8516 8.78125ZM73.6406 0.953125H77.2383V19H73.6406V0.953125ZM83.2852 13.3867C83.4727 15.5273 84.5742 16.5977 86.5898 16.5977C87.2148 16.5977 87.8438 16.5273 88.4766 16.3867C89.1094 16.2383 89.8086 16.0039 90.5742 15.6836L91.4414 17.9219C89.5352 18.8047 87.7734 19.2422 86.1562 19.2344C84.1719 19.2344 82.6133 18.6562 81.4805 17.5C80.3477 16.3438 79.7812 14.7383 79.7812 12.6836C79.7812 10.6367 80.3359 9.04297 81.4453 7.90234C82.5547 6.75391 84.1094 6.17969 86.1094 6.17969C89.8672 6.17969 91.7461 8.30859 91.7461 12.5664V13.3867H83.2852ZM88.4414 11.3008C88.3398 9.55078 87.5703 8.67578 86.1328 8.67578C85.3359 8.67578 84.707 8.89453 84.2461 9.33203C83.793 9.76172 83.4961 10.418 83.3555 11.3008H88.4414ZM99.8555 1.77344C101.262 1.76562 102.844 2.07422 104.602 2.69922L103.863 5.51172C102.23 4.93359 100.902 4.64453 99.8789 4.64453C99.0508 4.64453 98.3984 4.80859 97.9219 5.13672C97.4453 5.46484 97.207 5.91016 97.207 6.47266C97.207 7.08203 97.4258 7.56641 97.8633 7.92578C98.3086 8.28516 99.1172 8.61719 100.289 8.92188C102.016 9.36719 103.242 9.98438 103.969 10.7734C104.695 11.5547 105.059 12.6328 105.059 14.0078C105.059 15.6719 104.496 16.9492 103.371 17.8398C102.254 18.7227 100.656 19.1641 98.5781 19.1641C96.8828 19.1641 95.0664 18.7812 93.1289 18.0156L93.9961 15.2852C95.0664 15.668 95.9414 15.9375 96.6211 16.0938C97.3008 16.2422 97.9453 16.3164 98.5547 16.3164C99.4375 16.3164 100.117 16.1289 100.594 15.7539C101.078 15.3711 101.32 14.8438 101.32 14.1719C101.32 13.7422 101.219 13.3828 101.016 13.0938C100.812 12.8047 100.469 12.5469 99.9844 12.3203C99.5 12.0859 98.8008 11.8555 97.8867 11.6289C96.3633 11.2617 95.25 10.6914 94.5469 9.91797C93.8438 9.14453 93.4922 8.125 93.4922 6.85938C93.4922 5.24219 94.0469 3.99219 95.1562 3.10938C96.2734 2.21875 97.8398 1.77344 99.8555 1.77344ZM111.129 7.96094C111.652 7.39844 112.266 6.96875 112.969 6.67188C113.672 6.375 114.441 6.22656 115.277 6.22656C116.59 6.22656 117.602 6.60938 118.312 7.375C119.023 8.13281 119.379 9.22266 119.379 10.6445V19H115.781V10.8438C115.781 10.1094 115.637 9.57812 115.348 9.25C115.059 8.92188 114.594 8.75781 113.953 8.75781C113.375 8.75781 112.836 8.89062 112.336 9.15625C111.836 9.41406 111.434 9.76562 111.129 10.2109V19H107.52V0.90625H111.129V7.96094ZM127.301 6.17969C129.074 6.17969 130.434 6.61719 131.379 7.49219C132.324 8.36719 132.797 9.63672 132.797 11.3008V19H129.82L129.41 17.5117C128.895 18.0586 128.312 18.4766 127.664 18.7656C127.023 19.0469 126.336 19.1875 125.602 19.1875C124.305 19.1875 123.273 18.8516 122.508 18.1797C121.75 17.5078 121.371 16.6055 121.371 15.4727C121.371 14.1602 121.922 13.1367 123.023 12.4023C124.133 11.668 125.68 11.3008 127.664 11.3008H129.199V10.9844C129.152 9.53125 128.328 8.80469 126.727 8.80469C126.18 8.80469 125.547 8.88672 124.828 9.05078C124.109 9.20703 123.461 9.41016 122.883 9.66016L122.121 7.23438C122.949 6.89844 123.82 6.64062 124.734 6.46094C125.648 6.27344 126.504 6.17969 127.301 6.17969ZM127.969 13.2695C126.945 13.2695 126.148 13.4453 125.578 13.7969C125.016 14.1484 124.734 14.6367 124.734 15.2617C124.734 15.7773 124.891 16.1719 125.203 16.4453C125.516 16.7109 125.957 16.8438 126.527 16.8438C127.043 16.8438 127.535 16.7305 128.004 16.5039C128.48 16.2773 128.879 15.9727 129.199 15.5898V13.2695H127.969ZM139.148 8.17188C139.938 6.875 141.043 6.22656 142.465 6.22656C142.77 6.22656 143.027 6.24609 143.238 6.28516C143.457 6.31641 143.734 6.37891 144.07 6.47266L143.66 9.61328C142.988 9.37109 142.395 9.25391 141.879 9.26172C141.316 9.26172 140.84 9.36328 140.449 9.56641C140.059 9.76172 139.73 10.0742 139.465 10.5039V19H135.855V6.42578H138.715L139.148 8.17188ZM148.23 13.3867C148.418 15.5273 149.52 16.5977 151.535 16.5977C152.16 16.5977 152.789 16.5273 153.422 16.3867C154.055 16.2383 154.754 16.0039 155.52 15.6836L156.387 17.9219C154.48 18.8047 152.719 19.2422 151.102 19.2344C149.117 19.2344 147.559 18.6562 146.426 17.5C145.293 16.3438 144.727 14.7383 144.727 12.6836C144.727 10.6367 145.281 9.04297 146.391 7.90234C147.5 6.75391 149.055 6.17969 151.055 6.17969C154.812 6.17969 156.691 8.30859 156.691 12.5664V13.3867H148.23ZM153.387 11.3008C153.285 9.55078 152.516 8.67578 151.078 8.67578C150.281 8.67578 149.652 8.89453 149.191 9.33203C148.738 9.76172 148.441 10.418 148.301 11.3008H153.387Z" fill="#0861E1"/>
</svg>
